<?xml version="1.0" encoding="UTF-8"?>
<svg id="Foreground_Large" data-name="Foreground Large" xmlns="http://www.w3.org/2000/svg" viewBox="0 0 108.39 108.39">
  <g id="Large_Border" data-name="Large Border">
    <path d="m54.07,25.05c.72,0,1.41.22,2,.65l24.83,18.04c1.2.87,1.69,2.4,1.24,3.8l-9.49,29.19c-.46,1.41-1.76,2.35-3.23,2.35h-30.7c-1.48,0-2.78-.94-3.23-2.35l-9.49-29.19c-.46-1.41.04-2.93,1.24-3.8l24.83-18.04c.58-.42,1.28-.65,2-.65m0-4.6c-1.65,0-3.3.51-4.7,1.53l-24.83,18.04c-2.8,2.04-3.98,5.65-2.91,8.94l9.49,29.19c1.07,3.3,4.14,5.53,7.61,5.53h30.7c3.47,0,6.54-2.23,7.61-5.53l9.49-29.19c1.07-3.3-.1-6.91-2.91-8.94l-24.83-18.04c-1.4-1.02-3.05-1.53-4.7-1.53h0Z" fill="#8355a0"/>
  </g>
  <g id="Image">
    <path d="m67.82,53.5l-4.07-6.25c-.31-.47.04-1.09.6-1.09h8.14c.57,0,.91.62.6,1.09l-4.07,6.25c-.28.43-.93.43-1.21,0Z" fill="#8355a0"/>
    <path d="m63.98,59.69l-2.5,3.95c-.28.44-.92.45-1.21.01l-10.86-16.41c-.31-.47.03-1.1.6-1.1h5.08c.48,0,.93.24,1.19.63l7.67,11.37c.31.46.32,1.07.02,1.54Z" fill="#8355a0"/>
    <path d="m49.63,59.69l-2.5,3.95c-.28.44-.92.45-1.21.01l-10.86-16.41c-.31-.47.03-1.1.6-1.1h5.08c.48,0,.93.24,1.19.63l7.67,11.37c.31.46.32,1.07.02,1.54Z" fill="#8355a0"/>
  </g>
</svg>